<svg version="1.1" id="Layer_1" xmlns="http://www.w3.org/2000/svg" xmlns:xlink="http://www.w3.org/1999/xlink" x="0px" y="0px"
	 width="100%" viewBox="0 0 800 730" enable-background="new 0 0 800 730" xml:space="preserve">
<path fill="#FEFEFE" opacity="1.000000" stroke="none" 
	d="
M1.000002,428.000000 
	C1.000000,362.312439 1.000000,296.624878 1.468657,230.467896 
	C21.767786,229.998428 41.598289,229.979782 61.428707,230.013550 
	C65.563530,230.020599 67.848717,230.099045 69.842407,224.375290 
	C74.282341,211.628540 80.977295,199.601974 87.408913,187.634277 
	C92.866669,177.478683 98.927101,167.606796 105.308617,157.999786 
	C111.038040,149.374466 117.263664,141.031418 123.830971,133.023575 
	C130.205338,125.250977 137.073013,117.847107 144.124680,110.675209 
	C152.253586,102.407715 160.387543,94.046425 169.307144,86.679794 
	C180.758484,77.222221 192.753479,68.368057 204.954681,59.887581 
	C219.291260,49.922916 234.285675,40.927914 250.514801,34.303364 
	C264.467468,28.608036 278.417938,22.824745 292.677948,17.990568 
	C304.409943,14.013402 316.498535,10.934832 328.608185,8.272505 
	C338.780670,6.036072 349.217255,5.009779 359.512756,3.301814 
	C360.119110,3.201226 360.509247,1.797385 361.000000,1.000008 
	C387.354218,1.000000 413.708466,1.000000 440.239685,1.272437 
	C441.200134,2.155621 441.925537,3.192031 442.776398,3.307988 
	C448.274658,4.057316 453.885315,4.189468 459.301453,5.295795 
	C477.801941,9.074774 496.414673,12.568953 514.183899,19.150286 
	C527.290161,24.004549 540.570984,28.677584 553.030273,34.916622 
	C569.413879,43.120785 585.671570,51.878323 600.885925,62.040939 
	C621.010010,75.483070 639.756714,90.890816 656.286011,108.753349 
	C664.248413,117.358017 672.667175,125.612900 679.911072,134.790405 
	C687.852905,144.852295 695.054199,155.559006 701.885254,166.420502 
	C708.649841,177.176437 714.942749,188.276001 720.707153,199.599228 
	C725.376099,208.770645 728.874207,218.533646 733.126709,227.927841 
	C733.600525,228.974503 735.601562,229.883392 736.912415,229.908401 
	C745.900085,230.079834 754.900757,229.766052 763.880249,230.086365 
	C769.190125,230.275772 774.725220,230.554291 779.705322,232.181412 
	C788.609314,235.090561 795.469055,240.697433 798.144104,250.339249 
	C798.440613,251.408005 800.017090,252.121674 801.000000,253.000000 
	C801.000000,317.354218 801.000000,381.708466 800.531372,446.533051 
	C783.585022,447.003082 767.107239,446.980042 750.629761,447.040344 
	C749.122314,447.045868 747.616760,447.584656 745.939819,448.173492 
	C745.495056,449.029602 745.144592,449.563782 744.958008,450.150085 
	C740.600769,463.839081 736.840393,477.753754 731.747192,491.162292 
	C727.125671,503.329071 721.570984,515.218811 715.470032,526.722778 
	C710.146973,536.759888 703.875488,546.361572 697.318848,555.659058 
	C689.848206,566.252502 682.014954,576.654541 673.573608,586.481995 
	C664.244507,597.343140 653.995117,607.410278 644.269958,617.937256 
	C642.119995,620.264404 640.485229,620.043762 638.541199,617.956970 
	C636.713806,615.995422 634.991577,613.890503 632.939331,612.191528 
	C623.836487,604.655640 614.631592,597.243042 605.501221,589.816406 
	C602.761169,592.239502 600.209595,594.934387 597.241943,597.044250 
	C584.592163,606.037720 571.966370,615.079956 559.033142,623.653931 
	C551.905823,628.379089 544.453186,632.803223 536.672241,636.309143 
	C524.722046,641.693481 512.475891,646.483826 500.140625,650.930603 
	C490.559814,654.384521 480.736023,657.263977 470.860077,659.766785 
	C463.610809,661.603882 456.137177,662.701416 448.700714,663.619080 
	C438.300781,664.902466 427.854736,666.366211 417.405975,666.563599 
	C403.320648,666.829773 389.200317,666.227844 375.120941,665.497864 
	C364.669128,664.955933 353.965271,664.825134 343.892029,662.377808 
	C324.144684,657.579895 304.481079,652.083801 285.321167,645.345825 
	C272.565369,640.859924 260.502106,634.160767 248.579346,627.629883 
	C239.570648,622.695190 231.072037,616.740845 222.716553,610.726135 
	C213.616104,604.175232 204.942856,597.030884 196.195724,590.232605 
	C190.910965,594.432861 185.446594,598.540527 180.252655,602.965515 
	C174.261810,608.069519 168.579788,613.536621 162.570114,618.617065 
	C161.765732,619.297119 159.214813,619.235168 158.507751,618.509033 
	C146.739319,606.422729 134.598633,594.633606 123.673843,581.812805 
	C115.591942,572.328308 108.766708,561.691711 102.062134,551.136169 
	C94.388725,539.055237 86.947311,526.765259 80.383995,514.060425 
	C75.072906,503.779694 70.809853,492.897095 66.820175,482.010895 
	C62.712399,470.802490 59.498341,459.266541 55.699768,447.494812 
	C45.673203,447.134949 35.840099,447.154236 25.617538,447.093872 
	C17.456264,445.178772 11.737087,440.435638 6.909233,434.309479 
	C5.132144,432.054504 2.980684,430.094543 1.000002,428.000000 
M455.500000,230.008163 
	C527.144592,230.008163 598.789185,230.008163 670.463257,230.008163 
	C655.292175,194.296173 622.528442,148.497238 574.714966,114.552605 
	C511.380157,69.588806 440.382874,51.957432 363.261230,61.156929 
	C313.131073,67.136726 267.423035,85.613029 226.561905,115.225349 
	C185.147903,145.238342 153.226318,183.403229 131.203262,230.008163 
	C239.231766,230.008163 346.865875,230.008163 455.500000,230.008163 
M424.500000,446.962402 
	C321.819031,446.962402 219.138046,446.962402 116.310860,446.962402 
	C132.673782,497.066254 159.711945,539.744385 197.379074,574.717224 
	C250.055038,541.611694 304.913849,517.454712 368.027344,516.297241 
	C368.027344,510.973724 367.896149,505.496094 368.057068,500.027039 
	C368.321167,491.049377 371.027130,482.659912 376.800995,475.893311 
	C386.053070,465.050415 398.343353,463.950012 411.123840,467.730713 
	C423.595886,471.420197 431.247101,483.520325 431.922699,496.040375 
	C432.295471,502.948547 431.989441,509.893311 431.989441,516.365662 
	C496.308624,516.962158 551.729797,541.567444 604.450256,574.720276 
	C643.225037,540.892578 676.047974,483.867767 684.930420,446.962402 
	C598.398071,446.962402 511.949036,446.962402 424.500000,446.962402 
M483.995087,22.466457 
	C471.736542,20.297678 459.533478,17.711313 447.204529,16.072025 
	C433.591705,14.262024 419.869232,12.337642 406.183838,12.256197 
	C390.096558,12.160458 373.984924,13.825435 357.909607,15.061469 
	C350.296204,15.646866 342.628632,16.494482 335.187866,18.138788 
	C323.109192,20.808004 310.947571,23.504148 299.275482,27.512447 
	C283.544739,32.914532 267.848419,38.744350 252.871429,45.922329 
	C237.751694,53.168736 222.958435,61.442150 209.073639,70.822105 
	C195.231628,80.173157 182.483932,91.205719 169.671448,101.993896 
	C162.972092,107.634773 157.034378,114.211273 150.987091,120.587532 
	C143.640869,128.333374 135.854660,135.797272 129.470490,144.293625 
	C113.276596,165.845215 98.821487,188.558182 87.461441,213.096634 
	C84.989349,218.436493 82.979591,223.990402 80.608963,229.808807 
	C93.977249,229.808807 106.761520,229.808807 118.862762,229.808807 
	C174.918945,120.800301 262.134552,58.562958 385.206451,49.006493 
	C522.357788,46.716225 619.877075,109.587471 683.543579,229.794464 
	C695.280640,229.794464 708.055725,229.794464 721.378235,229.794464 
	C719.008789,223.977859 717.312622,218.222610 714.463623,213.109741 
	C704.760620,195.696335 695.181580,178.172729 684.507324,161.356323 
	C677.576050,150.436584 669.306824,140.247543 660.747681,130.513092 
	C652.181763,120.771011 642.765015,111.726662 633.246765,102.887344 
	C624.749084,94.995789 615.992920,87.272171 606.660828,80.413170 
	C588.909485,67.366020 570.240967,55.615864 550.303650,46.186172 
	C538.893494,40.789547 527.008545,36.308933 515.102966,32.074810 
	C505.144470,28.533146 494.845551,25.948616 483.995087,22.466457 
M519.783875,543.967957 
	C518.481934,543.313721 517.243896,542.439575 515.868042,542.039795 
	C504.160522,538.637878 492.481445,535.116211 480.684204,532.052856 
	C472.781403,530.000732 464.700256,528.635559 455.999847,526.816833 
	C455.999847,529.964966 455.999878,531.592590 455.999847,533.220154 
	C455.999451,552.711792 456.271545,572.209900 455.802795,591.690308 
	C455.688843,596.425964 453.868683,601.504089 451.554504,605.723511 
	C446.725647,614.527832 437.985443,617.720825 428.633667,617.848389 
	C401.983398,618.211914 375.325012,617.978088 348.669800,617.969421 
	C347.557190,617.969055 346.444611,617.870239 344.939667,617.798645 
	C344.939667,587.727600 344.939667,557.996033 344.939667,527.195984 
	C294.185150,535.424561 248.239944,553.900085 205.477737,582.267456 
	C272.095337,639.470520 349.327789,662.624207 435.590942,653.635010 
	C496.365631,647.301941 550.094604,622.717163 596.453796,582.223633 
	C572.219849,566.418518 547.445984,553.145081 519.783875,543.967957 
M355.964661,536.541382 
	C355.964661,560.281860 355.964661,584.022339 355.964661,607.999634 
	C380.163177,607.999634 403.792633,608.450378 427.391418,607.796021 
	C438.060822,607.500122 446.005585,602.132080 446.019165,588.255432 
	C446.037415,569.608276 446.029266,550.961121 446.014008,532.313965 
	C446.012848,530.897217 445.865326,529.480591 445.799500,528.307617 
	C415.586060,528.307617 385.862244,528.307617 355.964661,528.307617 
	C355.964661,530.927368 355.964661,533.242188 355.964661,536.541382 
M165.431198,556.945679 
	C162.290771,552.999573 158.900925,549.224426 156.057648,545.074707 
	C148.147308,533.529785 140.017883,522.096313 132.838425,510.101959 
	C127.520309,501.217255 123.201683,491.675781 119.079735,482.149109 
	C114.506447,471.579285 110.741737,460.661652 106.398308,449.987701 
	C105.869026,448.686951 103.953224,447.121277 102.650803,447.094421 
	C91.526047,446.865204 80.394562,446.963104 67.992889,446.963104 
	C84.532738,508.374054 115.528595,560.200073 160.368668,603.883484 
	C169.857971,596.200073 179.058029,588.750854 188.324677,581.247742 
	C180.659210,573.078003 173.315613,565.251282 165.431198,556.945679 
M656.030579,530.644592 
	C654.361328,533.017578 652.818481,535.492615 651.001038,537.746155 
	C642.727234,548.005859 634.536743,558.340393 625.978394,568.359375 
	C622.234741,572.742004 617.682190,576.433655 613.152039,580.769043 
	C623.016418,588.837280 632.247070,596.387146 641.576294,604.017639 
	C686.298950,559.891296 717.534973,508.290649 733.994019,446.962402 
	C723.448975,446.962402 714.155090,446.962402 704.861206,446.962402 
	C696.795837,446.962402 696.805664,446.965881 693.969543,454.994598 
	C692.744934,458.461304 691.678406,462.003479 690.180542,465.350433 
	C684.688843,477.621704 679.481750,490.050110 673.323425,501.983826 
	C668.331116,511.658051 662.127380,520.707092 656.030579,530.644592 
M132.695435,367.972900 
	C130.891891,366.579834 129.185913,365.021149 127.237755,363.873566 
	C126.435280,363.400848 124.602303,363.350616 124.108231,363.896210 
	C120.856056,367.487610 117.841331,371.294067 114.816780,374.948669 
	C115.213112,375.538452 115.346924,375.864746 115.584373,376.072571 
	C124.401993,383.788635 134.264755,388.883026 146.213852,390.164062 
	C158.255295,391.454987 169.595825,391.599792 180.206360,384.144958 
	C186.383652,379.804871 191.898254,364.691711 190.383957,357.356262 
	C187.716156,344.433044 178.832245,338.873627 167.931015,335.098206 
	C160.820175,332.635498 153.383926,331.129547 146.176147,328.924652 
	C139.437836,326.863342 136.748383,323.113953 136.999619,316.941681 
	C137.166275,312.847229 141.116425,309.715698 147.012924,307.901703 
	C153.765564,305.824371 159.795013,307.915436 165.724014,310.419769 
	C170.102707,312.269287 174.174225,314.846039 178.350037,317.081360 
	C181.697037,312.389008 184.886078,307.918091 188.063339,303.463745 
	C186.335205,302.198914 185.200516,301.288849 183.989929,300.494507 
	C169.997528,291.313110 154.975067,287.951813 138.690491,293.014587 
	C117.896255,299.479370 114.351921,321.522644 123.144623,335.199646 
	C127.444458,341.888031 135.010544,344.465637 142.201050,346.927246 
	C150.500931,349.768555 159.089005,351.818298 167.241852,355.005066 
	C169.411697,355.853210 171.502029,359.483704 171.800491,362.049408 
	C172.642746,369.289978 166.730255,374.525574 158.806900,375.063049 
	C149.454727,375.697479 141.246002,372.744080 132.695435,367.972900 
M266.469940,379.033752 
	C266.522736,378.067108 267.014160,376.661499 266.557251,376.205017 
	C263.574707,373.225220 260.386688,370.451141 256.957825,367.329346 
	C249.274979,376.894836 239.444962,377.991791 229.177811,374.876617 
	C222.556366,372.867584 219.585175,366.926605 217.802963,360.008789 
	C219.908371,360.008789 221.394745,360.008759 222.881119,360.008759 
	C237.360336,360.008728 251.840836,360.096405 266.316864,359.883026 
	C267.892761,359.859833 270.730072,358.196411 270.810181,357.130554 
	C271.841125,343.409363 268.375336,331.211975 257.482849,321.961914 
	C245.069489,311.420288 223.053467,312.295471 211.672882,323.825287 
	C201.716232,333.912537 197.434174,345.764771 199.905457,360.074493 
	C202.214142,373.442780 209.202072,384.060242 221.486969,388.385345 
	C237.274643,393.943726 253.327972,393.373230 266.469940,379.033752 
M422.003815,347.500000 
	C422.003845,338.501740 421.868835,329.500458 422.071106,320.506775 
	C422.150665,316.969849 420.934448,315.706635 417.451599,315.951508 
	C414.135315,316.184662 410.774963,316.198395 407.461121,315.948608 
	C403.858490,315.677063 402.898987,317.182831 402.939148,320.596130 
	C403.092010,333.591736 403.062622,346.590820 402.943665,359.587128 
	C402.921814,361.974823 402.509155,364.483429 401.680664,366.714844 
	C399.573883,372.388855 392.283905,375.850861 384.920502,375.000336 
	C379.601532,374.385956 374.505310,369.561951 374.094452,363.594971 
	C373.402985,353.552490 373.273407,343.468445 373.033600,333.398895 
	C372.896545,327.643951 373.008789,321.883026 373.008789,316.323853 
	C366.605743,316.323853 360.862213,316.323853 354.971558,316.323853 
	C354.971558,332.963165 354.051819,349.345947 355.202820,365.581940 
	C356.663269,386.183197 369.482971,393.690308 387.864014,390.333832 
	C393.283051,389.344299 398.098358,385.048523 403.000214,382.371735 
	C403.000214,382.319458 403.103943,383.134888 402.983215,383.915619 
	C402.252014,388.644196 404.009277,390.692169 408.967010,390.062134 
	C411.754761,389.707886 414.638855,389.818512 417.453552,390.044006 
	C420.938660,390.323212 422.121094,389.022827 422.071259,385.491699 
	C421.897308,373.163269 422.003845,360.830872 422.003815,347.500000 
M603.872620,409.667755 
	C610.878296,405.315979 614.245178,398.432129 617.059937,391.067230 
	C621.800964,378.661987 626.743958,366.334015 631.555725,353.955566 
	C636.412781,341.460754 641.213623,328.944092 646.207031,316.001648 
	C640.800476,316.001648 635.826050,316.189880 630.874878,315.931854 
	C627.851257,315.774261 626.817627,316.924713 625.877441,319.726471 
	C620.564026,335.560699 614.953369,351.295105 608.968079,368.425537 
	C601.928528,350.068848 595.379639,332.991669 588.984985,316.316772 
	C582.249390,316.316772 576.199890,316.316772 569.876587,316.316772 
	C574.690369,328.238281 579.307312,339.807953 584.031555,351.333679 
	C588.763977,362.879669 593.607178,374.380310 598.394836,385.903748 
	C600.712952,391.483307 597.144958,397.126862 591.012390,396.840546 
	C587.455688,396.674469 583.958374,395.234985 580.271606,394.328552 
	C578.341919,398.635437 576.325623,403.135498 574.295654,407.666046 
	C583.539551,412.467834 593.088196,414.366150 603.872620,409.667755 
M314.271088,330.960510 
	C321.211853,329.713623 327.309143,331.490143 332.035492,336.689972 
	C334.862885,339.800537 336.864197,339.378937 339.161316,336.370850 
	C340.744232,334.298004 342.272583,332.108795 344.199707,330.391785 
	C346.839691,328.039673 346.149017,326.435150 343.887604,324.360992 
	C335.865448,317.003143 326.379791,315.255554 315.714447,314.742096 
	C293.288879,313.662476 274.894958,337.755798 278.878906,358.554291 
	C282.066345,375.194550 290.692657,386.754333 307.726440,390.155029 
	C323.039124,393.212128 336.969543,390.569977 347.203400,376.692017 
	C343.466461,373.353821 339.720764,370.007782 335.546783,366.279144 
	C334.513824,367.584290 333.931641,368.682007 333.039764,369.389191 
	C325.991516,374.978088 318.466827,378.737885 309.450256,374.052917 
	C296.759674,367.458984 294.840332,357.972443 298.058624,344.641937 
	C299.853271,337.208527 305.203064,332.046661 314.271088,330.960510 
M517.699280,316.062195 
	C517.365479,320.909302 517.031738,325.756409 516.669678,331.013977 
	C520.126953,331.013977 522.873840,331.013977 525.991211,331.013977 
	C525.991211,332.345825 525.971130,333.302795 525.994263,334.258728 
	C526.314697,347.488678 526.590271,360.720001 526.988281,373.947662 
	C527.172058,380.056488 532.720276,388.639160 537.509583,389.773285 
	C545.212708,391.597351 553.014282,391.750916 560.521851,388.874023 
	C561.982727,388.314240 563.667114,386.330200 563.849365,384.832794 
	C564.319641,380.970764 564.006836,377.013397 564.006836,372.514160 
	C561.514160,373.371552 559.737000,374.043121 557.923645,374.596252 
	C549.345215,377.213043 544.016846,373.361053 544.002014,364.534210 
	C543.985840,354.881958 544.114502,345.227509 543.936035,335.578522 
	C543.872681,332.154449 544.880005,330.760742 548.463196,330.935364 
	C553.553223,331.183441 558.664307,330.998383 563.755615,330.998383 
	C563.755615,325.740234 563.755615,321.006561 563.755615,316.001648 
	C558.697571,316.001648 553.886902,315.781738 549.107056,316.070801 
	C545.239075,316.304688 543.648010,315.164124 543.921082,311.061737 
	C544.248352,306.144623 543.998413,301.189087 543.998413,296.220642 
	C537.767029,296.220642 532.034668,296.220642 525.918213,296.220642 
	C525.918213,302.876831 525.918213,309.289246 525.918213,316.006073 
	C523.238525,316.006073 520.944092,316.006073 517.699280,316.062195 
M677.962402,367.444672 
	C677.962402,369.880981 677.962402,372.317261 677.962402,374.764099 
	C683.908447,374.764099 689.315247,374.764099 695.122681,374.764099 
	C695.122681,366.110931 695.122681,357.703918 695.122681,348.897156 
	C703.927185,348.897156 712.331665,348.897156 720.739624,348.897156 
	C720.739624,343.408813 720.739624,338.338776 720.739624,332.877136 
	C712.080566,332.877136 703.675537,332.877136 694.890625,332.877136 
	C694.890625,324.078308 694.890625,315.672974 694.890625,307.242706 
	C689.086670,307.242706 683.677185,307.242706 677.877686,307.242706 
	C677.877686,315.882751 677.877686,324.289917 677.877686,333.092743 
	C668.752075,333.092743 660.014099,333.092743 651.246338,333.092743 
	C651.246338,338.575775 651.246338,343.645355 651.246338,349.133850 
	C660.229736,349.133850 668.966064,349.133850 677.962402,349.133850 
	C677.962402,355.190521 677.962402,360.825623 677.962402,367.444672 
M481.025848,316.749512 
	C480.110168,316.162781 479.214996,315.102264 478.275726,315.061707 
	C467.370270,314.590485 460.770569,321.076843 454.857666,330.499084 
	C454.857666,325.023987 454.857666,320.541962 454.857666,316.001648 
	C450.306885,316.001648 446.292969,316.248810 442.323700,315.933533 
	C438.188995,315.605164 436.862946,316.961243 436.904053,321.232574 
	C437.112396,342.888367 436.994843,364.547241 437.013245,386.205017 
	C437.014313,387.458130 437.206757,388.711121 437.283722,389.644043 
	C443.475067,389.644043 449.223816,389.644043 456.018860,389.644043 
	C456.018860,377.873474 455.522247,366.427948 456.203430,355.052948 
	C456.618011,348.129700 458.762665,341.088898 465.899261,337.695038 
	C470.703613,335.410339 475.891327,333.931793 481.029572,332.047882 
	C481.029572,327.357178 481.029572,322.529999 481.025848,316.749512 
M421.706696,495.179962 
	C418.827118,485.734772 414.976685,477.598450 403.246429,476.512268 
	C395.539307,475.798615 388.439362,477.682556 383.971741,483.755890 
	C376.392975,494.058563 379.782501,505.640381 378.962097,516.714172 
	C393.675385,516.714172 407.730804,516.714172 421.986176,516.714172 
	C421.986176,509.632660 421.986176,502.834442 421.706696,495.179962 
M508.012848,325.533691 
	C508.012848,322.427795 508.012848,319.321899 508.012848,316.002319 
	C502.482788,316.002319 497.491974,315.769684 492.550903,316.162781 
	C491.285583,316.263489 489.158936,318.332001 489.148102,319.512207 
	C488.943390,341.829193 488.951111,364.148926 489.125824,386.466400 
	C489.135071,387.650665 490.946320,389.763489 492.027527,389.836700 
	C497.265167,390.191406 502.540009,389.996704 508.012848,389.996704 
	C508.012848,368.453217 508.012848,347.488159 508.012848,325.533691 
M508.024292,295.548706 
	C508.024292,293.456543 508.024292,291.364349 508.024292,289.197144 
	C501.461761,289.197144 495.420013,289.197144 489.345886,289.197144 
	C489.345886,294.913300 489.345886,300.410034 489.345886,305.701294 
	C495.740875,305.701294 501.786865,305.701294 508.024292,305.701294 
	C508.024292,302.447021 508.024292,299.486389 508.024292,295.548706 
z"/>
<path fill="#010000" opacity="1.000000" stroke="none" 
	d="
M55.893227,447.873962 
	C59.498341,459.266541 62.712399,470.802490 66.820175,482.010895 
	C70.809853,492.897095 75.072906,503.779694 80.383995,514.060425 
	C86.947311,526.765259 94.388725,539.055237 102.062134,551.136169 
	C108.766708,561.691711 115.591942,572.328308 123.673843,581.812805 
	C134.598633,594.633606 146.739319,606.422729 158.507751,618.509033 
	C159.214813,619.235168 161.765732,619.297119 162.570114,618.617065 
	C168.579788,613.536621 174.261810,608.069519 180.252655,602.965515 
	C185.446594,598.540527 190.910965,594.432861 196.195724,590.232605 
	C204.942856,597.030884 213.616104,604.175232 222.716553,610.726135 
	C231.072037,616.740845 239.570648,622.695190 248.579346,627.629883 
	C260.502106,634.160767 272.565369,640.859924 285.321167,645.345825 
	C304.481079,652.083801 324.144684,657.579895 343.892029,662.377808 
	C353.965271,664.825134 364.669128,664.955933 375.120941,665.497864 
	C389.200317,666.227844 403.320648,666.829773 417.405975,666.563599 
	C427.854736,666.366211 438.300781,664.902466 448.700714,663.619080 
	C456.137177,662.701416 463.610809,661.603882 470.860077,659.766785 
	C480.736023,657.263977 490.559814,654.384521 500.140625,650.930603 
	C512.475891,646.483826 524.722046,641.693481 536.672241,636.309143 
	C544.453186,632.803223 551.905823,628.379089 559.033142,623.653931 
	C571.966370,615.079956 584.592163,606.037720 597.241943,597.044250 
	C600.209595,594.934387 602.761169,592.239502 605.501221,589.816406 
	C614.631592,597.243042 623.836487,604.655640 632.939331,612.191528 
	C634.991577,613.890503 636.713806,615.995422 638.541199,617.956970 
	C640.485229,620.043762 642.119995,620.264404 644.269958,617.937256 
	C653.995117,607.410278 664.244507,597.343140 673.573608,586.481995 
	C682.014954,576.654541 689.848206,566.252502 697.318848,555.659058 
	C703.875488,546.361572 710.146973,536.759888 715.470032,526.722778 
	C721.570984,515.218811 727.125671,503.329071 731.747192,491.162292 
	C736.840393,477.753754 740.600769,463.839081 744.958008,450.150085 
	C745.144592,449.563782 745.495056,449.029602 746.397705,448.226562 
	C765.017517,447.987976 783.008728,447.993988 801.000000,448.000000 
	C801.000000,542.270142 801.000000,636.540222 801.000000,731.000000 
	C677.979187,731.000000 554.958252,731.000000 431.165283,730.619385 
	C432.404938,729.825745 434.399109,729.245972 436.431732,729.032349 
	C441.543213,728.495117 446.672058,728.123169 451.626862,727.699280 
	C451.250946,724.694336 450.978455,722.516052 450.640015,719.810547 
	C442.854034,720.592285 435.120514,721.368713 427.304291,722.153503 
	C426.992645,718.612427 426.729279,715.619751 426.442841,712.365417 
	C432.139618,711.911438 437.859894,711.281372 443.596222,711.051575 
	C448.505096,710.854919 446.853577,707.319519 446.924927,704.868164 
	C447.004028,702.151489 445.689667,702.303833 443.108124,702.741943 
	C437.225403,703.740417 431.172852,703.737854 425.291382,704.135193 
	C425.291382,700.606873 425.291382,697.851929 425.291382,695.248352 
	C433.104065,694.389404 440.612030,693.563904 448.231415,692.726196 
	C448.071899,690.031128 447.929199,687.619690 447.750061,684.592712 
	C436.945099,685.774719 426.489716,686.918518 416.001282,688.065918 
	C416.001282,690.711670 415.866974,692.714172 416.023254,694.693665 
	C416.978882,706.798645 418.000458,718.898438 419.000000,731.000000 
	C415.638702,731.000000 412.277435,731.000000 408.133911,730.612854 
	C407.511230,725.814941 407.670837,721.404114 407.897888,716.530762 
	C407.975220,712.578613 408.091675,709.085449 407.970001,705.600525 
	C407.788177,700.392883 407.438751,695.191162 407.078369,689.564209 
	C400.520721,686.001709 397.888336,687.381409 398.044647,694.061951 
	C398.135651,697.952087 398.887482,701.828125 398.955261,705.717224 
	C399.102081,714.142517 399.000183,722.572144 399.000000,731.000000 
	C266.416138,731.000000 133.832275,731.000000 1.000000,731.000000 
	C1.000000,630.312561 1.000000,529.624939 1.000002,428.468658 
	C2.980684,430.094543 5.132144,432.054504 6.909233,434.309479 
	C11.737087,440.435638 17.456264,445.178772 25.880735,447.425629 
	C36.320000,447.849304 46.106613,447.861633 55.893227,447.873962 
M273.584534,694.069580 
	C275.008575,698.525208 276.437653,702.979187 277.855316,707.436829 
	C279.525238,712.687744 282.283417,714.325684 288.264221,713.350342 
	C286.542664,707.337097 284.829498,701.353088 283.117310,695.372559 
	C283.593475,695.219604 283.899780,695.046021 284.213409,695.031555 
	C291.547546,694.693787 295.608490,692.322388 296.762299,686.676147 
	C298.323792,679.034851 298.800781,674.571106 290.954285,670.604919 
	C284.369720,667.276611 277.346527,664.789001 270.407349,662.227356 
	C269.638580,661.943542 267.600189,663.359863 267.097534,664.431824 
	C265.775696,667.250793 265.040863,670.338562 263.956482,673.276611 
	C260.827240,681.755371 257.711914,690.240662 254.442947,698.665894 
	C253.095917,702.137573 255.404648,702.258728 257.662598,703.176392 
	C260.239288,704.223389 262.003937,704.489136 262.961975,701.370605 
	C264.036224,697.873901 265.180328,694.398682 266.328461,690.806519 
	C268.834015,691.826355 270.920898,692.675842 273.584534,694.069580 
M490.512360,686.012024 
	C478.962402,675.859802 466.424774,681.088867 453.926178,683.576599 
	C453.841370,684.471863 453.556061,685.329651 453.718323,686.092163 
	C456.417480,698.773926 459.131287,711.453247 462.039001,724.087708 
	C462.182953,724.713379 464.193817,725.397888 465.215240,725.246155 
	C469.066315,724.674133 472.986267,724.121826 476.656494,722.893250 
	C480.889679,721.476196 485.567963,720.158875 488.855438,717.380981 
	C498.119812,709.552734 498.634155,697.614075 490.512360,686.012024 
M262.140106,661.319092 
	C264.571960,658.785706 262.050781,657.922302 260.515320,657.136719 
	C252.680313,653.127747 244.757324,649.291138 236.896515,645.331848 
	C234.578094,644.164062 233.472076,644.646790 232.559235,647.205811 
	C231.434036,650.360168 229.729965,653.317261 228.176651,656.307922 
	C223.752594,664.825928 219.278137,673.317627 214.707504,682.041077 
	C223.791016,687.039429 232.373978,691.769592 240.964584,696.485840 
	C244.213699,698.269531 244.895187,695.574646 245.968201,693.579529 
	C247.083191,691.506226 247.862656,689.967407 244.549667,688.726746 
	C240.954727,687.380310 237.745071,685.006409 234.364761,683.085144 
	C231.920044,681.695618 227.940292,680.725830 227.427109,678.819763 
	C226.839172,676.636047 229.326630,673.624329 230.686707,670.491577 
	C236.784470,673.745361 242.687897,676.895447 248.950180,680.237000 
	C250.332962,677.885620 251.618698,675.699219 252.965790,673.408508 
	C246.842590,670.067017 240.825821,666.783630 234.582657,663.376648 
	C235.956085,660.547791 237.349182,657.678345 238.577988,655.147339 
	C244.644699,658.242676 250.342453,660.968079 255.851868,664.032166 
	C258.907898,665.731812 260.673096,665.127747 262.140106,661.319092 
M613.453003,663.960022 
	C614.660400,662.970215 615.867737,661.980469 617.028076,661.029175 
	C614.585449,653.890198 613.930481,653.740356 608.021362,657.812012 
	C603.329590,661.044739 598.451660,664.007385 593.551025,667.157715 
	C591.662781,664.380066 589.918640,661.814453 588.195496,659.279663 
	C594.146790,655.283325 599.774109,651.504517 605.616943,647.580933 
	C603.945679,645.171326 602.698914,643.373718 601.217712,641.238159 
	C595.265686,644.985962 589.485901,648.625305 583.728271,652.250671 
	C581.874390,649.425415 580.320190,647.056946 578.697754,644.584534 
	C585.480469,640.133362 591.829468,635.966797 598.277771,631.735107 
	C596.622192,629.135803 595.264954,627.004822 594.070557,625.129578 
	C586.090393,630.229492 578.620972,635.145813 570.992859,639.802063 
	C568.243469,641.480286 566.705261,642.322815 569.222351,645.963745 
	C576.070007,655.869080 582.245361,666.237549 588.850220,676.315552 
	C589.383362,677.129089 591.602417,677.826660 592.296326,677.392639 
	C599.189270,673.080017 605.926025,668.517822 613.453003,663.960022 
M535.997375,676.261292 
	C536.507507,678.477478 536.579102,680.924622 537.603577,682.869995 
	C542.074646,691.360474 552.926270,696.301147 562.527222,693.902954 
	C569.157471,692.246765 579.472229,684.752441 578.724731,677.043152 
	C572.798401,674.241333 572.798401,674.241333 569.845886,679.014038 
	C565.739502,685.651978 559.006226,687.625977 552.040222,684.234192 
	C546.182007,681.381775 542.307190,672.980591 544.218750,667.276184 
	C546.499512,660.470398 553.571716,656.807983 561.165649,658.651611 
	C566.015564,659.829102 564.124451,655.134766 565.637878,653.429138 
	C565.854126,653.185425 564.341064,650.557983 563.200317,650.100281 
	C556.841858,647.549133 550.920898,649.825439 545.740540,653.179688 
	C537.576782,658.465637 533.381042,666.583069 535.997375,676.261292 
M182.137863,654.770813 
	C185.597549,665.150696 193.882538,672.457153 203.125778,672.070923 
	C210.667099,671.755859 210.684158,672.033569 209.905106,664.716064 
	C209.880814,664.487976 209.482422,664.299683 208.951401,663.809204 
	C205.937881,663.809204 202.454575,664.465027 199.349686,663.660461 
	C194.279572,662.346680 190.555771,655.301819 191.000259,649.385559 
	C191.379791,644.333679 196.526047,637.816711 200.753326,637.034729 
	C209.251648,635.462708 213.661194,637.347900 216.821045,643.960144 
	C217.313431,644.990540 217.574738,646.128906 218.024994,647.182251 
	C219.809738,651.357544 222.566467,647.581848 224.831436,647.829102 
	C225.326263,647.883118 226.776520,645.700378 226.546432,644.907898 
	C222.749619,631.831177 207.119293,623.422302 194.191254,630.266235 
	C184.936005,635.165894 181.075470,643.461609 182.137863,654.770813 
M387.047424,713.971924 
	C390.542816,707.309875 389.888519,706.243286 382.808777,705.948242 
	C377.941681,705.745483 373.095154,705.050110 368.196350,704.570679 
	C368.196350,701.207703 368.196350,697.930847 368.196350,695.033997 
	C376.160919,695.455017 383.950958,695.866821 391.730957,696.278137 
	C391.730957,693.048889 391.730957,690.645325 391.730957,688.407776 
	C382.319489,687.589111 373.189331,686.790894 364.058258,686.003174 
	C361.641357,685.794739 360.079803,686.110291 359.914825,689.322754 
	C359.242676,702.409668 358.254028,715.480347 357.371399,728.716431 
	C360.689819,728.716431 363.243835,728.716431 365.616577,728.716431 
	C366.175507,723.085876 366.705261,717.749207 367.158630,713.181885 
	C373.746826,713.465271 379.935852,713.731445 387.047424,713.971924 
M318.205322,707.822083 
	C319.949860,701.325378 321.694397,694.828674 323.598419,687.738037 
	C327.870789,688.517700 332.252380,689.317261 336.843414,690.155090 
	C336.919556,688.972656 336.761780,688.233093 337.032318,687.718872 
	C339.540588,682.951965 336.787811,681.990356 332.799774,681.111389 
	C323.347534,679.028198 313.979614,676.562317 304.218536,674.162842 
	C303.491394,676.482300 302.696960,679.016418 301.774078,681.960327 
	C306.456482,683.246277 310.726257,684.418884 314.842834,685.549438 
	C311.951721,696.926758 309.106934,708.121704 306.276947,719.258545 
	C314.683319,721.804932 314.707123,721.811462 316.640228,714.757690 
	C317.191864,712.744873 317.561432,710.682129 318.205322,707.822083 
M345.996857,725.340454 
	C347.991364,711.678406 349.985901,698.016357 351.986572,684.312256 
	C348.894409,683.782837 346.219513,683.324768 343.185852,682.805359 
	C341.097687,697.284363 339.064850,711.379883 336.923248,726.229614 
	C340.103210,726.229614 343.029663,726.229614 345.996857,725.340454 
M519.813660,685.279663 
	C518.666931,685.188599 517.040833,684.572205 516.460449,685.101746 
	C514.450989,686.935303 511.666931,688.991760 511.311646,691.292847 
	C510.874542,694.123779 512.808533,697.541138 516.675476,696.845642 
	C519.027344,696.422729 521.767517,694.994995 523.166992,693.139099 
	C525.613525,689.895020 522.312866,687.932556 519.813660,685.279663 
z"/>
<path fill="#000000" opacity="1.000000" stroke="none" 
	d="
M801.000000,252.531342 
	C800.017090,252.121674 798.440613,251.408005 798.144104,250.339249 
	C795.469055,240.697433 788.609314,235.090561 779.705322,232.181412 
	C774.725220,230.554291 769.190125,230.275772 763.880249,230.086365 
	C754.900757,229.766052 745.900085,230.079834 736.912415,229.908401 
	C735.601562,229.883392 733.600525,228.974503 733.126709,227.927841 
	C728.874207,218.533646 725.376099,208.770645 720.707153,199.599228 
	C714.942749,188.276001 708.649841,177.176437 701.885254,166.420502 
	C695.054199,155.559006 687.852905,144.852295 679.911072,134.790405 
	C672.667175,125.612900 664.248413,117.358017 656.286011,108.753349 
	C639.756714,90.890816 621.010010,75.483070 600.885925,62.040939 
	C585.671570,51.878323 569.413879,43.120785 553.030273,34.916622 
	C540.570984,28.677584 527.290161,24.004549 514.183899,19.150286 
	C496.414673,12.568953 477.801941,9.074774 459.301453,5.295795 
	C453.885315,4.189468 448.274658,4.057316 442.776398,3.307988 
	C441.925537,3.192031 441.200134,2.155621 440.708374,1.272437 
	C560.914185,1.000000 680.828308,1.000000 801.000000,1.000000 
	C801.000000,84.687386 801.000000,168.375031 801.000000,252.531342 
z"/>
<path fill="#000000" opacity="1.000000" stroke="none" 
	d="
M360.531372,1.000008 
	C360.509247,1.797385 360.119110,3.201226 359.512756,3.301814 
	C349.217255,5.009779 338.780670,6.036072 328.608185,8.272505 
	C316.498535,10.934832 304.409943,14.013402 292.677948,17.990568 
	C278.417938,22.824745 264.467468,28.608036 250.514801,34.303364 
	C234.285675,40.927914 219.291260,49.922916 204.954681,59.887581 
	C192.753479,68.368057 180.758484,77.222221 169.307144,86.679794 
	C160.387543,94.046425 152.253586,102.407715 144.124680,110.675209 
	C137.073013,117.847107 130.205338,125.250977 123.830971,133.023575 
	C117.263664,141.031418 111.038040,149.374466 105.308617,157.999786 
	C98.927101,167.606796 92.866669,177.478683 87.408913,187.634277 
	C80.977295,199.601974 74.282341,211.628540 69.842407,224.375290 
	C67.848717,230.099045 65.563530,230.020599 61.428707,230.013550 
	C41.598289,229.979782 21.767786,229.998428 1.468657,229.999237 
	C1.000000,153.723373 1.000000,77.446762 1.000000,1.000000 
	C120.687508,1.000000 240.375092,1.000000 360.531372,1.000008 
z"/>
<path fill="#FFFFFF" opacity="1.000000" stroke="none" 
	d="
M419.460632,731.000000 
	C418.000458,718.898438 416.978882,706.798645 416.023254,694.693665 
	C415.866974,692.714172 416.001282,690.711670 416.001282,688.065918 
	C426.489716,686.918518 436.945099,685.774719 447.750061,684.592712 
	C447.929199,687.619690 448.071899,690.031128 448.231415,692.726196 
	C440.612030,693.563904 433.104065,694.389404 425.291382,695.248352 
	C425.291382,697.851929 425.291382,700.606873 425.291382,704.135193 
	C431.172852,703.737854 437.225403,703.740417 443.108124,702.741943 
	C445.689667,702.303833 447.004028,702.151489 446.924927,704.868164 
	C446.853577,707.319519 448.505096,710.854919 443.596222,711.051575 
	C437.859894,711.281372 432.139618,711.911438 426.442841,712.365417 
	C426.729279,715.619751 426.992645,718.612427 427.304291,722.153503 
	C435.120514,721.368713 442.854034,720.592285 450.640015,719.810547 
	C450.978455,722.516052 451.250946,724.694336 451.626862,727.699280 
	C446.672058,728.123169 441.543213,728.495117 436.431732,729.032349 
	C434.399109,729.245972 432.404938,729.825745 430.696655,730.619385 
	C427.307098,731.000000 423.614166,731.000000 419.460632,731.000000 
z"/>
<path fill="#FFFFFF" opacity="1.000000" stroke="none" 
	d="
M407.830414,716.993347 
	C407.670837,721.404114 407.511230,725.814941 407.675842,730.612854 
	C405.299988,731.000000 402.599976,731.000000 399.449982,731.000000 
	C399.000183,722.572144 399.102081,714.142517 398.955261,705.717224 
	C398.887482,701.828125 398.135651,697.952087 398.044647,694.061951 
	C397.888336,687.381409 400.520721,686.001709 407.004608,690.028076 
	C407.007111,694.076233 406.902557,697.241516 407.016907,700.398865 
	C407.217346,705.932922 407.552002,711.462097 407.830414,716.993347 
z"/>
<path fill="#E12626" opacity="1.000000" stroke="none" 
	d="
M801.000000,447.750000 
	C783.008728,447.993988 765.017517,447.987976 746.568298,447.928894 
	C747.616760,447.584656 749.122314,447.045868 750.629761,447.040344 
	C767.107239,446.980042 783.585022,447.003082 800.531372,447.001709 
	C801.000000,447.000000 801.000000,447.500000 801.000000,447.750000 
z"/>
<path fill="#000000" opacity="1.000000" stroke="none" 
	d="
M455.000000,230.008163 
	C346.865875,230.008163 239.231766,230.008163 131.203262,230.008163 
	C153.226318,183.403229 185.147903,145.238342 226.561905,115.225349 
	C267.423035,85.613029 313.131073,67.136726 363.261230,61.156929 
	C440.382874,51.957432 511.380157,69.588806 574.714966,114.552605 
	C622.528442,148.497238 655.292175,194.296173 670.463257,230.008163 
	C598.789185,230.008163 527.144592,230.008163 455.000000,230.008163 
M567.299255,191.957047 
	C566.199951,188.472794 565.430481,184.840485 563.944397,181.529846 
	C557.401794,166.954514 550.812561,152.393875 543.810425,138.037537 
	C542.722717,135.807404 539.325439,133.269424 537.140808,133.394791 
	C534.751404,133.531891 531.499817,136.113266 530.399353,138.461349 
	C522.125671,156.116257 514.290222,173.976517 506.277069,191.863403 
	C517.221558,193.024338 519.335205,184.586380 522.245239,177.153839 
	C532.518921,177.153839 542.629761,177.153839 552.666504,177.153839 
	C558.376709,189.095795 558.376709,189.095795 567.299255,191.957047 
M387.007019,164.102676 
	C387.003693,169.598267 386.611176,175.128387 387.095154,180.580719 
	C387.705597,187.457779 388.202606,190.185226 394.715515,191.896759 
	C395.121704,191.258514 395.911377,190.592972 395.918518,189.919144 
	C396.008423,181.427353 396.602234,172.875549 395.799530,164.459991 
	C395.136169,157.505447 390.850616,152.112259 383.731873,150.354523 
	C377.404907,148.792313 371.524445,150.524582 366.875244,155.223969 
	C361.453888,149.809097 355.428650,148.830307 348.660797,150.983231 
	C343.023499,152.776550 338.814087,156.948654 338.288696,162.225189 
	C337.314240,172.011642 338.009552,181.964325 338.009552,191.922272 
	C344.464661,191.021301 346.359833,187.469498 346.023865,181.905502 
	C345.733337,177.093597 345.918671,172.249649 345.976562,167.420883 
	C346.037415,162.347076 350.107147,157.924927 354.569183,157.969330 
	C359.054382,158.013977 362.968628,162.405914 363.015839,167.560730 
	C363.066132,173.055878 362.962524,178.552841 363.048370,184.047119 
	C363.126862,189.071091 365.782959,191.557846 371.001221,191.525772 
	C371.001221,183.710236 371.321014,175.874634 370.890289,168.080490 
	C370.596863,162.771255 372.842743,159.640213 377.489838,158.259201 
	C381.957733,156.931442 384.908630,159.503235 387.007019,164.102676 
M267.194702,183.016083 
	C260.522675,184.927673 254.057816,184.369110 247.999420,180.988022 
	C236.914169,174.801483 232.888763,161.950073 239.007126,152.363922 
	C246.874603,140.037308 265.456665,136.457474 277.379456,147.782074 
	C280.546051,150.789795 284.377228,152.652328 288.940338,150.438416 
	C286.037842,140.688614 272.488464,130.899307 255.295761,133.103333 
	C240.835602,134.957047 229.797302,145.545670 228.028015,159.519318 
	C226.294373,173.211563 236.489319,188.148438 254.340942,191.657074 
	C265.824219,193.914047 281.906982,188.975769 287.615051,176.102005 
	C283.505096,176.624680 280.067047,176.489670 277.089417,177.594986 
	C273.848663,178.797958 271.035370,181.152512 267.194702,183.016083 
M413.729095,161.012482 
	C416.046448,160.040115 418.290649,158.794998 420.695801,158.150040 
	C426.369476,156.628616 432.660522,159.831375 436.177307,165.737289 
	C437.999023,168.796570 437.064301,176.160294 434.492462,179.010742 
	C429.753693,184.262833 419.741394,184.908218 412.106384,180.453720 
	C410.148224,185.033478 412.306610,190.321167 416.910828,190.874344 
	C421.469269,191.421982 426.440674,192.019943 430.714752,190.794907 
	C443.666504,187.082703 450.199432,172.397659 442.818451,160.251175 
	C437.233643,151.060501 426.155365,148.190811 417.668732,150.342255 
	C405.558838,153.412216 401.097565,159.457993 400.185242,171.647873 
	C399.317902,183.236664 399.998535,194.941345 399.998535,206.574249 
	C405.159119,206.979233 408.888550,203.025681 408.972229,196.996735 
	C409.087860,188.665176 408.603577,180.302887 409.185608,172.010590 
	C409.438416,168.409271 411.706360,164.949371 413.729095,161.012482 
M288.997833,173.237869 
	C290.259247,182.604233 295.424622,188.987671 307.318207,191.615891 
	C317.565125,193.880203 330.295349,188.823685 333.982758,178.027084 
	C338.111053,165.939774 332.000183,153.354919 317.494812,150.301498 
	C303.370453,147.328293 287.644409,156.463638 288.997833,173.237869 
M445.513794,132.998093 
	C440.705505,132.998093 435.897217,132.998093 430.131226,132.998093 
	C432.451172,137.783615 433.611450,141.073929 438.262634,141.109970 
	C443.151611,141.147827 448.043335,142.002579 452.921448,141.901382 
	C456.803314,141.820877 458.180908,142.898071 458.099854,146.959641 
	C457.854156,159.267654 458.002106,171.583618 458.007446,183.896484 
	C458.009674,188.956055 460.158142,191.145340 466.162842,191.827286 
	C466.162842,175.235931 466.162842,158.692352 466.162842,142.002441 
	C471.446106,142.002441 476.261475,142.123428 481.068604,141.975342 
	C489.182159,141.725372 492.211121,139.066330 491.375458,132.998093 
	C476.437347,132.998093 461.472961,132.998093 445.513794,132.998093 
M504.001373,188.193451 
	C504.001373,173.038086 504.020630,157.882675 503.991272,142.727356 
	C503.980499,137.159485 501.519684,134.522110 495.691803,133.739014 
	C495.488495,134.116653 495.071808,134.530243 495.070526,134.945084 
	C495.023346,150.599228 494.864807,166.255768 495.103058,181.906189 
	C495.164398,185.935883 496.523865,189.846161 501.040863,191.610001 
	C503.882996,192.719818 504.161072,191.301788 504.001373,188.193451 
M573.605835,184.934677 
	C574.347961,184.413239 575.090088,183.891800 575.832275,183.370361 
	C575.867065,182.954575 575.901855,182.538773 575.936646,182.122986 
	C573.409424,181.855911 570.882202,181.588837 567.583374,181.240219 
	C572.323975,188.637360 572.323975,188.637360 574.663879,187.330048 
	C574.142822,186.698288 573.626892,186.072708 573.605835,184.934677 
z"/>
<path fill="#000000" opacity="1.000000" stroke="none" 
	d="
M425.000000,446.962402 
	C511.949036,446.962402 598.398071,446.962402 684.930420,446.962402 
	C676.047974,483.867767 643.225037,540.892578 604.450256,574.720276 
	C551.729797,541.567444 496.308624,516.962158 431.989441,516.365662 
	C431.989441,509.893311 432.295471,502.948547 431.922699,496.040375 
	C431.247101,483.520325 423.595886,471.420197 411.123840,467.730713 
	C398.343353,463.950012 386.053070,465.050415 376.800995,475.893311 
	C371.027130,482.659912 368.321167,491.049377 368.057068,500.027039 
	C367.896149,505.496094 368.027344,510.973724 368.027344,516.297241 
	C304.913849,517.454712 250.055038,541.611694 197.379074,574.717224 
	C159.711945,539.744385 132.673782,497.066254 116.310860,446.962402 
	C219.138046,446.962402 321.819031,446.962402 425.000000,446.962402 
z"/>
<path fill="#000000" opacity="1.000000" stroke="none" 
	d="
M484.346252,22.703346 
	C494.845551,25.948616 505.144470,28.533146 515.102966,32.074810 
	C527.008545,36.308933 538.893494,40.789547 550.303650,46.186172 
	C570.240967,55.615864 588.909485,67.366020 606.660828,80.413170 
	C615.992920,87.272171 624.749084,94.995789 633.246765,102.887344 
	C642.765015,111.726662 652.181763,120.771011 660.747681,130.513092 
	C669.306824,140.247543 677.576050,150.436584 684.507324,161.356323 
	C695.181580,178.172729 704.760620,195.696335 714.463623,213.109741 
	C717.312622,218.222610 719.008789,223.977859 721.378235,229.794464 
	C708.055725,229.794464 695.280640,229.794464 683.543579,229.794464 
	C619.877075,109.587471 522.357788,46.716225 385.206451,49.006493 
	C262.134552,58.562958 174.918945,120.800301 118.862762,229.808807 
	C106.761520,229.808807 93.977249,229.808807 80.608963,229.808807 
	C82.979591,223.990402 84.989349,218.436493 87.461441,213.096634 
	C98.821487,188.558182 113.276596,165.845215 129.470490,144.293625 
	C135.854660,135.797272 143.640869,128.333374 150.987091,120.587532 
	C157.034378,114.211273 162.972092,107.634773 169.671448,101.993896 
	C182.483932,91.205719 195.231628,80.173157 209.073639,70.822105 
	C222.958435,61.442150 237.751694,53.168736 252.871429,45.922329 
	C267.848419,38.744350 283.544739,32.914532 299.275482,27.512447 
	C310.947571,23.504148 323.109192,20.808004 335.187866,18.138788 
	C342.628632,16.494482 350.296204,15.646866 357.909607,15.061469 
	C373.984924,13.825435 390.096558,12.160458 406.183838,12.256197 
	C419.869232,12.337642 433.591705,14.262024 447.204529,16.072025 
	C459.533478,17.711313 471.736542,20.297678 484.346252,22.703346 
z"/>
<path fill="#000000" opacity="1.000000" stroke="none" 
	d="
M520.192505,543.984009 
	C547.445984,553.145081 572.219849,566.418518 596.453796,582.223633 
	C550.094604,622.717163 496.365631,647.301941 435.590942,653.635010 
	C349.327789,662.624207 272.095337,639.470520 205.477737,582.267456 
	C248.239944,553.900085 294.185150,535.424561 344.939667,527.195984 
	C344.939667,557.996033 344.939667,587.727600 344.939667,617.798645 
	C346.444611,617.870239 347.557190,617.969055 348.669800,617.969421 
	C375.325012,617.978088 401.983398,618.211914 428.633667,617.848389 
	C437.985443,617.720825 446.725647,614.527832 451.554504,605.723511 
	C453.868683,601.504089 455.688843,596.425964 455.802795,591.690308 
	C456.271545,572.209900 455.999451,552.711792 455.999847,533.220154 
	C455.999878,531.592590 455.999847,529.964966 455.999847,526.816833 
	C464.700256,528.635559 472.781403,530.000732 480.684204,532.052856 
	C492.481445,535.116211 504.160522,538.637878 515.868042,542.039795 
	C517.243896,542.439575 518.481934,543.313721 520.192505,543.984009 
z"/>
<path fill="#000000" opacity="1.000000" stroke="none" 
	d="
M355.964661,536.049194 
	C355.964661,533.242188 355.964661,530.927368 355.964661,528.307617 
	C385.862244,528.307617 415.586060,528.307617 445.799500,528.307617 
	C445.865326,529.480591 446.012848,530.897217 446.014008,532.313965 
	C446.029266,550.961121 446.037415,569.608276 446.019165,588.255432 
	C446.005585,602.132080 438.060822,607.500122 427.391418,607.796021 
	C403.792633,608.450378 380.163177,607.999634 355.964661,607.999634 
	C355.964661,584.022339 355.964661,560.281860 355.964661,536.049194 
M409.044983,567.539612 
	C410.965118,562.029907 406.357239,555.672668 400.704285,556.032227 
	C396.634735,556.291138 392.378906,560.131042 392.006805,563.939514 
	C391.587189,568.234070 393.495544,571.287598 397.434662,572.761353 
	C402.169159,574.532837 406.602081,572.692810 409.044983,567.539612 
z"/>
<path fill="#000000" opacity="1.000000" stroke="none" 
	d="
M165.701599,557.185120 
	C173.315613,565.251282 180.659210,573.078003 188.324677,581.247742 
	C179.058029,588.750854 169.857971,596.200073 160.368668,603.883484 
	C115.528595,560.200073 84.532738,508.374054 67.992889,446.963104 
	C80.394562,446.963104 91.526047,446.865204 102.650803,447.094421 
	C103.953224,447.121277 105.869026,448.686951 106.398308,449.987701 
	C110.741737,460.661652 114.506447,471.579285 119.079735,482.149109 
	C123.201683,491.675781 127.520309,501.217255 132.838425,510.101959 
	C140.017883,522.096313 148.147308,533.529785 156.057648,545.074707 
	C158.900925,549.224426 162.290771,552.999573 165.701599,557.185120 
z"/>
<path fill="#000000" opacity="1.000000" stroke="none" 
	d="
M656.245728,530.338989 
	C662.127380,520.707092 668.331116,511.658051 673.323425,501.983826 
	C679.481750,490.050110 684.688843,477.621704 690.180542,465.350433 
	C691.678406,462.003479 692.744934,458.461304 693.969543,454.994598 
	C696.805664,446.965881 696.795837,446.962402 704.861206,446.962402 
	C714.155090,446.962402 723.448975,446.962402 733.994019,446.962402 
	C717.534973,508.290649 686.298950,559.891296 641.576294,604.017639 
	C632.247070,596.387146 623.016418,588.837280 613.152039,580.769043 
	C617.682190,576.433655 622.234741,572.742004 625.978394,568.359375 
	C634.536743,558.340393 642.727234,548.005859 651.001038,537.746155 
	C652.818481,535.492615 654.361328,533.017578 656.245728,530.338989 
z"/>
<path fill="#000000" opacity="1.000000" stroke="none" 
	d="
M133.072266,368.006714 
	C141.246002,372.744080 149.454727,375.697479 158.806900,375.063049 
	C166.730255,374.525574 172.642746,369.289978 171.800491,362.049408 
	C171.502029,359.483704 169.411697,355.853210 167.241852,355.005066 
	C159.089005,351.818298 150.500931,349.768555 142.201050,346.927246 
	C135.010544,344.465637 127.444458,341.888031 123.144623,335.199646 
	C114.351921,321.522644 117.896255,299.479370 138.690491,293.014587 
	C154.975067,287.951813 169.997528,291.313110 183.989929,300.494507 
	C185.200516,301.288849 186.335205,302.198914 188.063339,303.463745 
	C184.886078,307.918091 181.697037,312.389008 178.350037,317.081360 
	C174.174225,314.846039 170.102707,312.269287 165.724014,310.419769 
	C159.795013,307.915436 153.765564,305.824371 147.012924,307.901703 
	C141.116425,309.715698 137.166275,312.847229 136.999619,316.941681 
	C136.748383,323.113953 139.437836,326.863342 146.176147,328.924652 
	C153.383926,331.129547 160.820175,332.635498 167.931015,335.098206 
	C178.832245,338.873627 187.716156,344.433044 190.383957,357.356262 
	C191.898254,364.691711 186.383652,379.804871 180.206360,384.144958 
	C169.595825,391.599792 158.255295,391.454987 146.213852,390.164062 
	C134.264755,388.883026 124.401993,383.788635 115.584373,376.072571 
	C115.346924,375.864746 115.213112,375.538452 114.816780,374.948669 
	C117.841331,371.294067 120.856056,367.487610 124.108231,363.896210 
	C124.602303,363.350616 126.435280,363.400848 127.237755,363.873566 
	C129.185913,365.021149 130.891891,366.579834 133.072266,368.006714 
z"/>
<path fill="#000000" opacity="1.000000" stroke="none" 
	d="
M266.226990,379.290588 
	C253.327972,393.373230 237.274643,393.943726 221.486969,388.385345 
	C209.202072,384.060242 202.214142,373.442780 199.905457,360.074493 
	C197.434174,345.764771 201.716232,333.912537 211.672882,323.825287 
	C223.053467,312.295471 245.069489,311.420288 257.482849,321.961914 
	C268.375336,331.211975 271.841125,343.409363 270.810181,357.130554 
	C270.730072,358.196411 267.892761,359.859833 266.316864,359.883026 
	C251.840836,360.096405 237.360336,360.008728 222.881119,360.008759 
	C221.394745,360.008759 219.908371,360.008789 217.802963,360.008789 
	C219.585175,366.926605 222.556366,372.867584 229.177811,374.876617 
	C239.444962,377.991791 249.274979,376.894836 256.957825,367.329346 
	C260.386688,370.451141 263.574707,373.225220 266.557251,376.205017 
	C267.014160,376.661499 266.522736,378.067108 266.226990,379.290588 
M222.425842,335.058868 
	C220.750259,338.802216 219.074677,342.545532 217.194992,346.744843 
	C229.985535,346.744843 241.372223,346.744843 252.819046,346.744843 
	C248.124603,329.650330 234.057678,323.993042 222.425842,335.058868 
z"/>
<path fill="#000000" opacity="1.000000" stroke="none" 
	d="
M422.003815,348.000000 
	C422.003845,360.830872 421.897308,373.163269 422.071259,385.491699 
	C422.121094,389.022827 420.938660,390.323212 417.453552,390.044006 
	C414.638855,389.818512 411.754761,389.707886 408.967010,390.062134 
	C404.009277,390.692169 402.252014,388.644196 402.983215,383.915619 
	C403.103943,383.134888 403.000214,382.319458 403.000214,382.371735 
	C398.098358,385.048523 393.283051,389.344299 387.864014,390.333832 
	C369.482971,393.690308 356.663269,386.183197 355.202820,365.581940 
	C354.051819,349.345947 354.971558,332.963165 354.971558,316.323853 
	C360.862213,316.323853 366.605743,316.323853 373.008789,316.323853 
	C373.008789,321.883026 372.896545,327.643951 373.033600,333.398895 
	C373.273407,343.468445 373.402985,353.552490 374.094452,363.594971 
	C374.505310,369.561951 379.601532,374.385956 384.920502,375.000336 
	C392.283905,375.850861 399.573883,372.388855 401.680664,366.714844 
	C402.509155,364.483429 402.921814,361.974823 402.943665,359.587128 
	C403.062622,346.590820 403.092010,333.591736 402.939148,320.596130 
	C402.898987,317.182831 403.858490,315.677063 407.461121,315.948608 
	C410.774963,316.198395 414.135315,316.184662 417.451599,315.951508 
	C420.934448,315.706635 422.150665,316.969849 422.071106,320.506775 
	C421.868835,329.500458 422.003845,338.501740 422.003815,348.000000 
z"/>
<path fill="#000000" opacity="1.000000" stroke="none" 
	d="
M603.514038,409.831757 
	C593.088196,414.366150 583.539551,412.467834 574.295654,407.666046 
	C576.325623,403.135498 578.341919,398.635437 580.271606,394.328552 
	C583.958374,395.234985 587.455688,396.674469 591.012390,396.840546 
	C597.144958,397.126862 600.712952,391.483307 598.394836,385.903748 
	C593.607178,374.380310 588.763977,362.879669 584.031555,351.333679 
	C579.307312,339.807953 574.690369,328.238281 569.876587,316.316772 
	C576.199890,316.316772 582.249390,316.316772 588.984985,316.316772 
	C595.379639,332.991669 601.928528,350.068848 608.968079,368.425537 
	C614.953369,351.295105 620.564026,335.560699 625.877441,319.726471 
	C626.817627,316.924713 627.851257,315.774261 630.874878,315.931854 
	C635.826050,316.189880 640.800476,316.001648 646.207031,316.001648 
	C641.213623,328.944092 636.412781,341.460754 631.555725,353.955566 
	C626.743958,366.334015 621.800964,378.661987 617.059937,391.067230 
	C614.245178,398.432129 610.878296,405.315979 603.514038,409.831757 
z"/>
<path fill="#000000" opacity="1.000000" stroke="none" 
	d="
M313.852722,330.977936 
	C305.203064,332.046661 299.853271,337.208527 298.058624,344.641937 
	C294.840332,357.972443 296.759674,367.458984 309.450256,374.052917 
	C318.466827,378.737885 325.991516,374.978088 333.039764,369.389191 
	C333.931641,368.682007 334.513824,367.584290 335.546783,366.279144 
	C339.720764,370.007782 343.466461,373.353821 347.203400,376.692017 
	C336.969543,390.569977 323.039124,393.212128 307.726440,390.155029 
	C290.692657,386.754333 282.066345,375.194550 278.878906,358.554291 
	C274.894958,337.755798 293.288879,313.662476 315.714447,314.742096 
	C326.379791,315.255554 335.865448,317.003143 343.887604,324.360992 
	C346.149017,326.435150 346.839691,328.039673 344.199707,330.391785 
	C342.272583,332.108795 340.744232,334.298004 339.161316,336.370850 
	C336.864197,339.378937 334.862885,339.800537 332.035492,336.689972 
	C327.309143,331.490143 321.211853,329.713623 313.852722,330.977936 
z"/>
<path fill="#000000" opacity="1.000000" stroke="none" 
	d="
M518.174500,316.034119 
	C520.944092,316.006073 523.238525,316.006073 525.918213,316.006073 
	C525.918213,309.289246 525.918213,302.876831 525.918213,296.220642 
	C532.034668,296.220642 537.767029,296.220642 543.998413,296.220642 
	C543.998413,301.189087 544.248352,306.144623 543.921082,311.061737 
	C543.648010,315.164124 545.239075,316.304688 549.107056,316.070801 
	C553.886902,315.781738 558.697571,316.001648 563.755615,316.001648 
	C563.755615,321.006561 563.755615,325.740234 563.755615,330.998383 
	C558.664307,330.998383 553.553223,331.183441 548.463196,330.935364 
	C544.880005,330.760742 543.872681,332.154449 543.936035,335.578522 
	C544.114502,345.227509 543.985840,354.881958 544.002014,364.534210 
	C544.016846,373.361053 549.345215,377.213043 557.923645,374.596252 
	C559.737000,374.043121 561.514160,373.371552 564.006836,372.514160 
	C564.006836,377.013397 564.319641,380.970764 563.849365,384.832794 
	C563.667114,386.330200 561.982727,388.314240 560.521851,388.874023 
	C553.014282,391.750916 545.212708,391.597351 537.509583,389.773285 
	C532.720276,388.639160 527.172058,380.056488 526.988281,373.947662 
	C526.590271,360.720001 526.314697,347.488678 525.994263,334.258728 
	C525.971130,333.302795 525.991211,332.345825 525.991211,331.013977 
	C522.873840,331.013977 520.126953,331.013977 516.669678,331.013977 
	C517.031738,325.756409 517.365479,320.909302 518.174500,316.034119 
z"/>
<path fill="#000000" opacity="1.000000" stroke="none" 
	d="
M677.962402,366.952698 
	C677.962402,360.825623 677.962402,355.190521 677.962402,349.133850 
	C668.966064,349.133850 660.229736,349.133850 651.246338,349.133850 
	C651.246338,343.645355 651.246338,338.575775 651.246338,333.092743 
	C660.014099,333.092743 668.752075,333.092743 677.877686,333.092743 
	C677.877686,324.289917 677.877686,315.882751 677.877686,307.242706 
	C683.677185,307.242706 689.086670,307.242706 694.890625,307.242706 
	C694.890625,315.672974 694.890625,324.078308 694.890625,332.877136 
	C703.675537,332.877136 712.080566,332.877136 720.739624,332.877136 
	C720.739624,338.338776 720.739624,343.408813 720.739624,348.897156 
	C712.331665,348.897156 703.927185,348.897156 695.122681,348.897156 
	C695.122681,357.703918 695.122681,366.110931 695.122681,374.764099 
	C689.315247,374.764099 683.908447,374.764099 677.962402,374.764099 
	C677.962402,372.317261 677.962402,369.880981 677.962402,366.952698 
z"/>
<path fill="#000000" opacity="1.000000" stroke="none" 
	d="
M481.027710,317.226166 
	C481.029572,322.529999 481.029572,327.357178 481.029572,332.047882 
	C475.891327,333.931793 470.703613,335.410339 465.899261,337.695038 
	C458.762665,341.088898 456.618011,348.129700 456.203430,355.052948 
	C455.522247,366.427948 456.018860,377.873474 456.018860,389.644043 
	C449.223816,389.644043 443.475067,389.644043 437.283722,389.644043 
	C437.206757,388.711121 437.014313,387.458130 437.013245,386.205017 
	C436.994843,364.547241 437.112396,342.888367 436.904053,321.232574 
	C436.862946,316.961243 438.188995,315.605164 442.323700,315.933533 
	C446.292969,316.248810 450.306885,316.001648 454.857666,316.001648 
	C454.857666,320.541962 454.857666,325.023987 454.857666,330.499084 
	C460.770569,321.076843 467.370270,314.590485 478.275726,315.061707 
	C479.214996,315.102264 480.110168,316.162781 481.027710,317.226166 
z"/>
<path fill="#000000" opacity="1.000000" stroke="none" 
	d="
M421.846436,495.608093 
	C421.986176,502.834442 421.986176,509.632660 421.986176,516.714172 
	C407.730804,516.714172 393.675385,516.714172 378.962097,516.714172 
	C379.782501,505.640381 376.392975,494.058563 383.971741,483.755890 
	C388.439362,477.682556 395.539307,475.798615 403.246429,476.512268 
	C414.976685,477.598450 418.827118,485.734772 421.846436,495.608093 
z"/>
<path fill="#000000" opacity="1.000000" stroke="none" 
	d="
M508.012848,326.028381 
	C508.012848,347.488159 508.012848,368.453217 508.012848,389.996704 
	C502.540009,389.996704 497.265167,390.191406 492.027527,389.836700 
	C490.946320,389.763489 489.135071,387.650665 489.125824,386.466400 
	C488.951111,364.148926 488.943390,341.829193 489.148102,319.512207 
	C489.158936,318.332001 491.285583,316.263489 492.550903,316.162781 
	C497.491974,315.769684 502.482788,316.002319 508.012848,316.002319 
	C508.012848,319.321899 508.012848,322.427795 508.012848,326.028381 
z"/>
<path fill="#000000" opacity="1.000000" stroke="none" 
	d="
M508.024292,296.037231 
	C508.024292,299.486389 508.024292,302.447021 508.024292,305.701294 
	C501.786865,305.701294 495.740875,305.701294 489.345886,305.701294 
	C489.345886,300.410034 489.345886,294.913300 489.345886,289.197144 
	C495.420013,289.197144 501.461761,289.197144 508.024292,289.197144 
	C508.024292,291.364349 508.024292,293.456543 508.024292,296.037231 
z"/>
<path fill="#E12626" opacity="1.000000" stroke="none" 
	d="
M55.699768,447.494812 
	C46.106613,447.861633 36.320000,447.849304 26.270191,447.505249 
	C35.840099,447.154236 45.673203,447.134949 55.699768,447.494812 
z"/>
<path fill="#FFFFFF" opacity="1.000000" stroke="none" 
	d="
M273.296143,693.797424 
	C270.920898,692.675842 268.834015,691.826355 266.328461,690.806519 
	C265.180328,694.398682 264.036224,697.873901 262.961975,701.370605 
	C262.003937,704.489136 260.239288,704.223389 257.662598,703.176392 
	C255.404648,702.258728 253.095917,702.137573 254.442947,698.665894 
	C257.711914,690.240662 260.827240,681.755371 263.956482,673.276611 
	C265.040863,670.338562 265.775696,667.250793 267.097534,664.431824 
	C267.600189,663.359863 269.638580,661.943542 270.407349,662.227356 
	C277.346527,664.789001 284.369720,667.276611 290.954285,670.604919 
	C298.800781,674.571106 298.323792,679.034851 296.762299,686.676147 
	C295.608490,692.322388 291.547546,694.693787 284.213409,695.031555 
	C283.899780,695.046021 283.593475,695.219604 283.117310,695.372559 
	C284.829498,701.353088 286.542664,707.337097 288.264221,713.350342 
	C282.283417,714.325684 279.525238,712.687744 277.855316,707.436829 
	C276.437653,702.979187 275.008575,698.525208 273.296143,693.797424 
M285.341156,687.138855 
	C290.162811,683.228271 290.521484,680.043396 285.714813,676.926575 
	C282.067627,674.561584 277.722382,673.273193 273.637115,671.483582 
	C272.197845,675.928162 271.020447,679.564087 269.517090,684.206543 
	C274.783569,685.422424 279.794891,686.579346 285.341156,687.138855 
z"/>
<path fill="#FFFFFF" opacity="1.000000" stroke="none" 
	d="
M490.753540,686.295532 
	C498.634155,697.614075 498.119812,709.552734 488.855438,717.380981 
	C485.567963,720.158875 480.889679,721.476196 476.656494,722.893250 
	C472.986267,724.121826 469.066315,724.674133 465.215240,725.246155 
	C464.193817,725.397888 462.182953,724.713379 462.039001,724.087708 
	C459.131287,711.453247 456.417480,698.773926 453.718323,686.092163 
	C453.556061,685.329651 453.841370,684.471863 453.926178,683.576599 
	C466.424774,681.088867 478.962402,675.859802 490.753540,686.295532 
M487.000458,700.703674 
	C486.034393,698.012024 485.536774,695.011963 484.008484,692.690430 
	C480.406982,687.219666 471.466980,686.544678 463.910919,690.505249 
	C465.294647,698.120056 466.550415,705.658813 468.143494,713.125610 
	C468.384552,714.255310 470.198700,715.874084 471.279633,715.869751 
	C480.128601,715.834412 486.209015,710.150391 487.000458,700.703674 
z"/>
<path fill="#FFFEFE" opacity="1.000000" stroke="none" 
	d="
M261.968201,661.641846 
	C260.673096,665.127747 258.907898,665.731812 255.851868,664.032166 
	C250.342453,660.968079 244.644699,658.242676 238.577988,655.147339 
	C237.349182,657.678345 235.956085,660.547791 234.582657,663.376648 
	C240.825821,666.783630 246.842590,670.067017 252.965790,673.408508 
	C251.618698,675.699219 250.332962,677.885620 248.950180,680.237000 
	C242.687897,676.895447 236.784470,673.745361 230.686707,670.491577 
	C229.326630,673.624329 226.839172,676.636047 227.427109,678.819763 
	C227.940292,680.725830 231.920044,681.695618 234.364761,683.085144 
	C237.745071,685.006409 240.954727,687.380310 244.549667,688.726746 
	C247.862656,689.967407 247.083191,691.506226 245.968201,693.579529 
	C244.895187,695.574646 244.213699,698.269531 240.964584,696.485840 
	C232.373978,691.769592 223.791016,687.039429 214.707504,682.041077 
	C219.278137,673.317627 223.752594,664.825928 228.176651,656.307922 
	C229.729965,653.317261 231.434036,650.360168 232.559235,647.205811 
	C233.472076,644.646790 234.578094,644.164062 236.896515,645.331848 
	C244.757324,649.291138 252.680313,653.127747 260.515320,657.136719 
	C262.050781,657.922302 264.571960,658.785706 261.968201,661.641846 
z"/>
<path fill="#FFFEFE" opacity="1.000000" stroke="none" 
	d="
M613.079956,663.993042 
	C605.926025,668.517822 599.189270,673.080017 592.296326,677.392639 
	C591.602417,677.826660 589.383362,677.129089 588.850220,676.315552 
	C582.245361,666.237549 576.070007,655.869080 569.222351,645.963745 
	C566.705261,642.322815 568.243469,641.480286 570.992859,639.802063 
	C578.620972,635.145813 586.090393,630.229492 594.070557,625.129578 
	C595.264954,627.004822 596.622192,629.135803 598.277771,631.735107 
	C591.829468,635.966797 585.480469,640.133362 578.697754,644.584534 
	C580.320190,647.056946 581.874390,649.425415 583.728271,652.250671 
	C589.485901,648.625305 595.265686,644.985962 601.217712,641.238159 
	C602.698914,643.373718 603.945679,645.171326 605.616943,647.580933 
	C599.774109,651.504517 594.146790,655.283325 588.195496,659.279663 
	C589.918640,661.814453 591.662781,664.380066 593.551025,667.157715 
	C598.451660,664.007385 603.329590,661.044739 608.021362,657.812012 
	C613.930481,653.740356 614.585449,653.890198 617.028076,661.029175 
	C615.867737,661.980469 614.660400,662.970215 613.079956,663.993042 
z"/>
<path fill="#FFFEFE" opacity="1.000000" stroke="none" 
	d="
M535.983765,675.852783 
	C533.381042,666.583069 537.576782,658.465637 545.740540,653.179688 
	C550.920898,649.825439 556.841858,647.549133 563.200317,650.100281 
	C564.341064,650.557983 565.854126,653.185425 565.637878,653.429138 
	C564.124451,655.134766 566.015564,659.829102 561.165649,658.651611 
	C553.571716,656.807983 546.499512,660.470398 544.218750,667.276184 
	C542.307190,672.980591 546.182007,681.381775 552.040222,684.234192 
	C559.006226,687.625977 565.739502,685.651978 569.845886,679.014038 
	C572.798401,674.241333 572.798401,674.241333 578.724731,677.043152 
	C579.472229,684.752441 569.157471,692.246765 562.527222,693.902954 
	C552.926270,696.301147 542.074646,691.360474 537.603577,682.869995 
	C536.579102,680.924622 536.507507,678.477478 535.983765,675.852783 
z"/>
<path fill="#FFFFFF" opacity="1.000000" stroke="none" 
	d="
M182.073578,654.345825 
	C181.075470,643.461609 184.936005,635.165894 194.191254,630.266235 
	C207.119293,623.422302 222.749619,631.831177 226.546432,644.907898 
	C226.776520,645.700378 225.326263,647.883118 224.831436,647.829102 
	C222.566467,647.581848 219.809738,651.357544 218.024994,647.182251 
	C217.574738,646.128906 217.313431,644.990540 216.821045,643.960144 
	C213.661194,637.347900 209.251648,635.462708 200.753326,637.034729 
	C196.526047,637.816711 191.379791,644.333679 191.000259,649.385559 
	C190.555771,655.301819 194.279572,662.346680 199.349686,663.660461 
	C202.454575,664.465027 205.937881,663.809204 208.951401,663.809204 
	C209.482422,664.299683 209.880814,664.487976 209.905106,664.716064 
	C210.684158,672.033569 210.667099,671.755859 203.125778,672.070923 
	C193.882538,672.457153 185.597549,665.150696 182.073578,654.345825 
z"/>
<path fill="#FFFFFF" opacity="1.000000" stroke="none" 
	d="
M386.586151,713.984741 
	C379.935852,713.731445 373.746826,713.465271 367.158630,713.181885 
	C366.705261,717.749207 366.175507,723.085876 365.616577,728.716431 
	C363.243835,728.716431 360.689819,728.716431 357.371399,728.716431 
	C358.254028,715.480347 359.242676,702.409668 359.914825,689.322754 
	C360.079803,686.110291 361.641357,685.794739 364.058258,686.003174 
	C373.189331,686.790894 382.319489,687.589111 391.730957,688.407776 
	C391.730957,690.645325 391.730957,693.048889 391.730957,696.278137 
	C383.950958,695.866821 376.160919,695.455017 368.196350,695.033997 
	C368.196350,697.930847 368.196350,701.207703 368.196350,704.570679 
	C373.095154,705.050110 377.941681,705.745483 382.808777,705.948242 
	C389.888519,706.243286 390.542816,707.309875 386.586151,713.984741 
z"/>
<path fill="#FFFFFF" opacity="1.000000" stroke="none" 
	d="
M318.109894,708.232178 
	C317.561432,710.682129 317.191864,712.744873 316.640228,714.757690 
	C314.707123,721.811462 314.683319,721.804932 306.276947,719.258545 
	C309.106934,708.121704 311.951721,696.926758 314.842834,685.549438 
	C310.726257,684.418884 306.456482,683.246277 301.774078,681.960327 
	C302.696960,679.016418 303.491394,676.482300 304.218536,674.162842 
	C313.979614,676.562317 323.347534,679.028198 332.799774,681.111389 
	C336.787811,681.990356 339.540588,682.951965 337.032318,687.718872 
	C336.761780,688.233093 336.919556,688.972656 336.843414,690.155090 
	C332.252380,689.317261 327.870789,688.517700 323.598419,687.738037 
	C321.694397,694.828674 319.949860,701.325378 318.109894,708.232178 
z"/>
<path fill="#FFFFFF" opacity="1.000000" stroke="none" 
	d="
M345.976501,725.785034 
	C343.029663,726.229614 340.103210,726.229614 336.923248,726.229614 
	C339.064850,711.379883 341.097687,697.284363 343.185852,682.805359 
	C346.219513,683.324768 348.894409,683.782837 351.986572,684.312256 
	C349.985901,698.016357 347.991364,711.678406 345.976501,725.785034 
z"/>
<path fill="#FFFFFF" opacity="1.000000" stroke="none" 
	d="
M520.072754,685.576294 
	C522.312866,687.932556 525.613525,689.895020 523.166992,693.139099 
	C521.767517,694.994995 519.027344,696.422729 516.675476,696.845642 
	C512.808533,697.541138 510.874542,694.123779 511.311646,691.292847 
	C511.666931,688.991760 514.450989,686.935303 516.460449,685.101746 
	C517.040833,684.572205 518.666931,685.188599 520.072754,685.576294 
z"/>
<path fill="#E01F1F" opacity="1.000000" stroke="none" 
	d="
M407.897888,716.530762 
	C407.552002,711.462097 407.217346,705.932922 407.016907,700.398865 
	C406.902557,697.241516 407.007111,694.076233 407.086853,690.450684 
	C407.438751,695.191162 407.788177,700.392883 407.970001,705.600525 
	C408.091675,709.085449 407.975220,712.578613 407.897888,716.530762 
z"/>
<path fill="#FFFEFE" opacity="1.000000" stroke="none" 
	d="
M566.893005,191.950562 
	C558.376709,189.095795 558.376709,189.095795 552.666504,177.153839 
	C542.629761,177.153839 532.518921,177.153839 522.245239,177.153839 
	C519.335205,184.586380 517.221558,193.024338 506.277069,191.863403 
	C514.290222,173.976517 522.125671,156.116257 530.399353,138.461349 
	C531.499817,136.113266 534.751404,133.531891 537.140808,133.394791 
	C539.325439,133.269424 542.722717,135.807404 543.810425,138.037537 
	C550.812561,152.393875 557.401794,166.954514 563.944397,181.529846 
	C565.430481,184.840485 566.199951,188.472794 566.893005,191.950562 
M547.037292,164.359344 
	C544.000061,157.569595 540.962830,150.779861 537.569580,143.194244 
	C533.617371,152.215973 530.074890,160.302353 526.265503,168.998108 
	C528.399658,168.998108 529.386597,168.998108 530.373535,168.998093 
	C535.370789,168.998047 540.370056,168.910080 545.364563,169.027161 
	C549.035095,169.113220 549.201172,167.611603 547.037292,164.359344 
z"/>
<path fill="#FFFDFD" opacity="1.000000" stroke="none" 
	d="
M387.008850,163.664825 
	C384.908630,159.503235 381.957733,156.931442 377.489838,158.259201 
	C372.842743,159.640213 370.596863,162.771255 370.890289,168.080490 
	C371.321014,175.874634 371.001221,183.710236 371.001221,191.525772 
	C365.782959,191.557846 363.126862,189.071091 363.048370,184.047119 
	C362.962524,178.552841 363.066132,173.055878 363.015839,167.560730 
	C362.968628,162.405914 359.054382,158.013977 354.569183,157.969330 
	C350.107147,157.924927 346.037415,162.347076 345.976562,167.420883 
	C345.918671,172.249649 345.733337,177.093597 346.023865,181.905502 
	C346.359833,187.469498 344.464661,191.021301 338.009552,191.922272 
	C338.009552,181.964325 337.314240,172.011642 338.288696,162.225189 
	C338.814087,156.948654 343.023499,152.776550 348.660797,150.983231 
	C355.428650,148.830307 361.453888,149.809097 366.875244,155.223969 
	C371.524445,150.524582 377.404907,148.792313 383.731873,150.354523 
	C390.850616,152.112259 395.136169,157.505447 395.799530,164.459991 
	C396.602234,172.875549 396.008423,181.427353 395.918518,189.919144 
	C395.911377,190.592972 395.121704,191.258514 394.715515,191.896759 
	C388.202606,190.185226 387.705597,187.457779 387.095154,180.580719 
	C386.611176,175.128387 387.003693,169.598267 387.008850,163.664825 
z"/>
<path fill="#FFFDFD" opacity="1.000000" stroke="none" 
	d="
M267.615204,183.010529 
	C271.035370,181.152512 273.848663,178.797958 277.089417,177.594986 
	C280.067047,176.489670 283.505096,176.624680 287.615051,176.102005 
	C281.906982,188.975769 265.824219,193.914047 254.340942,191.657074 
	C236.489319,188.148438 226.294373,173.211563 228.028015,159.519318 
	C229.797302,145.545670 240.835602,134.957047 255.295761,133.103333 
	C272.488464,130.899307 286.037842,140.688614 288.940338,150.438416 
	C284.377228,152.652328 280.546051,150.789795 277.379456,147.782074 
	C265.456665,136.457474 246.874603,140.037308 239.007126,152.363922 
	C232.888763,161.950073 236.914169,174.801483 247.999420,180.988022 
	C254.057816,184.369110 260.522675,184.927673 267.615204,183.010529 
z"/>
<path fill="#FFFDFD" opacity="1.000000" stroke="none" 
	d="
M413.394073,161.218872 
	C411.706360,164.949371 409.438416,168.409271 409.185608,172.010590 
	C408.603577,180.302887 409.087860,188.665176 408.972229,196.996735 
	C408.888550,203.025681 405.159119,206.979233 399.998535,206.574249 
	C399.998535,194.941345 399.317902,183.236664 400.185242,171.647873 
	C401.097565,159.457993 405.558838,153.412216 417.668732,150.342255 
	C426.155365,148.190811 437.233643,151.060501 442.818451,160.251175 
	C450.199432,172.397659 443.666504,187.082703 430.714752,190.794907 
	C426.440674,192.019943 421.469269,191.421982 416.910828,190.874344 
	C412.306610,190.321167 410.148224,185.033478 412.106384,180.453720 
	C419.741394,184.908218 429.753693,184.262833 434.492462,179.010742 
	C437.064301,176.160294 437.999023,168.796570 436.177307,165.737289 
	C432.660522,159.831375 426.369476,156.628616 420.695801,158.150040 
	C418.290649,158.794998 416.046448,160.040115 413.394073,161.218872 
z"/>
<path fill="#FFFDFD" opacity="1.000000" stroke="none" 
	d="
M288.997803,172.789581 
	C287.644409,156.463638 303.370453,147.328293 317.494812,150.301498 
	C332.000183,153.354919 338.111053,165.939774 333.982758,178.027084 
	C330.295349,188.823685 317.565125,193.880203 307.318207,191.615891 
	C295.424622,188.987671 290.259247,182.604233 288.997803,172.789581 
M322.455627,161.974640 
	C317.009369,157.419312 309.848358,156.267899 304.097870,160.060303 
	C295.087006,166.002930 294.389618,174.325363 302.219482,180.481781 
	C307.341309,184.508926 313.528992,185.195694 319.825775,181.740128 
	C327.891663,177.313690 329.404846,169.028854 322.455627,161.974640 
z"/>
<path fill="#FFFDFD" opacity="1.000000" stroke="none" 
	d="
M446.011169,132.998093 
	C461.472961,132.998093 476.437347,132.998093 491.375458,132.998093 
	C492.211121,139.066330 489.182159,141.725372 481.068604,141.975342 
	C476.261475,142.123428 471.446106,142.002441 466.162842,142.002441 
	C466.162842,158.692352 466.162842,175.235931 466.162842,191.827286 
	C460.158142,191.145340 458.009674,188.956055 458.007446,183.896484 
	C458.002106,171.583618 457.854156,159.267654 458.099854,146.959641 
	C458.180908,142.898071 456.803314,141.820877 452.921448,141.901382 
	C448.043335,142.002579 443.151611,141.147827 438.262634,141.109970 
	C433.611450,141.073929 432.451172,137.783615 430.131226,132.998093 
	C435.897217,132.998093 440.705505,132.998093 446.011169,132.998093 
z"/>
<path fill="#FFFEFE" opacity="1.000000" stroke="none" 
	d="
M504.001312,188.653870 
	C504.161072,191.301788 503.882996,192.719818 501.040863,191.610001 
	C496.523865,189.846161 495.164398,185.935883 495.103058,181.906189 
	C494.864807,166.255768 495.023346,150.599228 495.070526,134.945084 
	C495.071808,134.530243 495.488495,134.116653 495.691803,133.739014 
	C501.519684,134.522110 503.980499,137.159485 503.991272,142.727356 
	C504.020630,157.882675 504.001373,173.038086 504.001312,188.653870 
z"/>
<path fill="#FEF5F5" opacity="1.000000" stroke="none" 
	d="
M573.358398,185.190887 
	C573.626892,186.072708 574.142822,186.698288 574.663879,187.330048 
	C572.323975,188.637360 572.323975,188.637360 567.583374,181.240219 
	C570.882202,181.588837 573.409424,181.855911 575.936646,182.122986 
	C575.901855,182.538773 575.867065,182.954575 575.832275,183.370361 
	C575.090088,183.891800 574.347961,184.413239 573.358398,185.190887 
z"/>
<path fill="#FEFEFE" opacity="1.000000" stroke="none" 
	d="
M409.023376,567.942932 
	C406.602081,572.692810 402.169159,574.532837 397.434662,572.761353 
	C393.495544,571.287598 391.587189,568.234070 392.006805,563.939514 
	C392.378906,560.131042 396.634735,556.291138 400.704285,556.032227 
	C406.357239,555.672668 410.965118,562.029907 409.023376,567.942932 
z"/>
<path fill="#FFFDFD" opacity="1.000000" stroke="none" 
	d="
M222.709808,334.801270 
	C234.057678,323.993042 248.124603,329.650330 252.819046,346.744843 
	C241.372223,346.744843 229.985535,346.744843 217.194992,346.744843 
	C219.074677,342.545532 220.750259,338.802216 222.709808,334.801270 
z"/>
<path fill="#080202" opacity="1.000000" stroke="none" 
	d="
M285.073669,687.437561 
	C279.794891,686.579346 274.783569,685.422424 269.517090,684.206543 
	C271.020447,679.564087 272.197845,675.928162 273.637115,671.483582 
	C277.722382,673.273193 282.067627,674.561584 285.714813,676.926575 
	C290.521484,680.043396 290.162811,683.228271 285.073669,687.437561 
z"/>
<path fill="#030101" opacity="1.000000" stroke="none" 
	d="
M487.001404,701.133667 
	C486.209015,710.150391 480.128601,715.834412 471.279633,715.869751 
	C470.198700,715.874084 468.384552,714.255310 468.143494,713.125610 
	C466.550415,705.658813 465.294647,698.120056 463.910919,690.505249 
	C471.466980,686.544678 480.406982,687.219666 484.008484,692.690430 
	C485.536774,695.011963 486.034393,698.012024 487.001404,701.133667 
z"/>
<path fill="#000000" opacity="1.000000" stroke="none" 
	d="
M547.263855,164.676132 
	C549.201172,167.611603 549.035095,169.113220 545.364563,169.027161 
	C540.370056,168.910080 535.370789,168.998047 530.373535,168.998093 
	C529.386597,168.998108 528.399658,168.998108 526.265503,168.998108 
	C530.074890,160.302353 533.617371,152.215973 537.569580,143.194244 
	C540.962830,150.779861 544.000061,157.569595 547.263855,164.676132 
z"/>
<path fill="#000000" opacity="1.000000" stroke="none" 
	d="
M322.729126,162.240921 
	C329.404846,169.028854 327.891663,177.313690 319.825775,181.740128 
	C313.528992,185.195694 307.341309,184.508926 302.219482,180.481781 
	C294.389618,174.325363 295.087006,166.002930 304.097870,160.060303 
	C309.848358,156.267899 317.009369,157.419312 322.729126,162.240921 
z"/>
</svg>
